<svg id="visual" viewBox="0 0 900 600" width="900" height="600" xmlns="http://www.w3.org/2000/svg" xmlns:xlink="http://www.w3.org/1999/xlink" version="1.1"><rect x="0" y="0" width="900" height="600" fill="#028090"></rect><g transform="translate(436.4064275600658 290.2099709502344)"><path d="M180.8 -244.3C240 -205.7 297.9 -160.6 314.7 -103.5C331.6 -46.4 307.5 22.9 279.2 84.7C250.9 146.6 218.3 201.1 171.1 248.3C123.8 295.4 61.9 335.2 -2 337.9C-65.8 340.6 -131.7 306.2 -184.6 260.9C-237.5 215.6 -277.6 159.4 -289.3 99.6C-300.9 39.8 -284.2 -23.5 -264 -85.8C-243.8 -148 -220 -209.1 -175.5 -252.5C-130.9 -295.8 -65.4 -321.4 -2.4 -318.2C60.7 -314.9 121.5 -282.9 180.8 -244.3" fill="#8bbdbe"></path></g></svg>